#define desk_toggled_width 13
#define desk_toggled_height 13
static unsigned char desk_toggled_bits[] = {
 0x00, 0x00, 0x00, 0x00, 0x00, 0x00, 0xE0, 0x00, 0xF0, 0x01, 0xF8, 0x03,
 0xF8, 0x03, 0xF8, 0x03, 0xF0, 0x01, 0xE0, 0x00, 0x00, 0x00, 0x00, 0x00,
 0x00, 0x00 };
