#define max_hover_width 13
#define max_hover_height 13
static unsigned char max_hover_bits[] = {
 0xF0, 0x01, 0xFC, 0x07, 0x02, 0x08, 0xFA, 0x0B, 0xFB, 0x1B, 0xFB, 0x1B,
 0xFB, 0x1B, 0xFB, 0x1B, 0xFB, 0x1B, 0xFA, 0x0B, 0x02, 0x08, 0xFC, 0x07,
 0xF0, 0x01 };
