#define max_toggled_hover_width 13
#define max_toggled_hover_height 13
static unsigned char max_toggled_hover_bits[] = {
 0xF0, 0x01, 0xFC, 0x07, 0x0E, 0x08, 0xFE, 0x0B, 0x03, 0x1A, 0xFB, 0x1A,
 0xFB, 0x1A, 0xFB, 0x1A, 0xFB, 0x1A, 0xFA, 0x0E, 0x02, 0x0E, 0xFC, 0x07,
 0xF0, 0x01 };
