#define shade_toggled_hover_width 13
#define shade_toggled_hover_height 13
static unsigned char shade_toggled_hover_bits[] = {
 0xF0, 0x01, 0xFC, 0x07, 0xFE, 0x0F, 0xFE, 0x0F, 0xFB, 0x1B, 0xF7, 0x1D,
 0xEF, 0x1E, 0x5F, 0x1F, 0xBF, 0x1F, 0xFE, 0x0F, 0xFE, 0x0F, 0xFC, 0x07,
 0xF0, 0x01 };
