#define shade_hover_width 13
#define shade_hover_height 13
static unsigned char shade_hover_bits[] = {
 0xF0, 0x01, 0xFC, 0x07, 0xFE, 0x0F, 0xBE, 0x0F, 0x5F, 0x1F, 0xEF, 0x1E,
 0xF7, 0x1D, 0xFB, 0x1B, 0xFF, 0x1F, 0xFE, 0x0F, 0xFE, 0x0F, 0xFC, 0x07,
 0xF0, 0x01 };
